<mxfile host="app.diagrams.net" modified="2023-06-13T18:38:30.898Z" agent="Mozilla/5.0 (Windows NT 10.0; Win64; x64) AppleWebKit/537.36 (KHTML, like Gecko) Chrome/113.0.0.0 Safari/537.36" etag="rYwPccUd53S2CBVnT9-n" version="21.3.8" type="github">
  <diagram name="PÃ¡gina-1" id="JCSiqAnS31qGbKRl32hf">
    <mxGraphModel dx="2048" dy="663" grid="1" gridSize="10" guides="1" tooltips="1" connect="1" arrows="1" fold="1" page="1" pageScale="1" pageWidth="827" pageHeight="1169" math="0" shadow="0">
      <root>
        <mxCell id="0" />
        <mxCell id="1" parent="0" />
        <mxCell id="gP56f93Z0Lwh1qoLY5qk-1" value="&lt;font style=&quot;vertical-align: inherit;&quot;&gt;&lt;font style=&quot;vertical-align: inherit;&quot;&gt;IICIO&lt;/font&gt;&lt;/font&gt;" style="rounded=1;whiteSpace=wrap;html=1;" vertex="1" parent="1">
          <mxGeometry x="-60" y="30" width="120" height="60" as="geometry" />
        </mxCell>
        <mxCell id="gP56f93Z0Lwh1qoLY5qk-5" value="" style="endArrow=classic;html=1;rounded=0;" edge="1" parent="1">
          <mxGeometry width="50" height="50" relative="1" as="geometry">
            <mxPoint x="-1" y="90" as="sourcePoint" />
            <mxPoint x="-1" y="190" as="targetPoint" />
          </mxGeometry>
        </mxCell>
        <mxCell id="gP56f93Z0Lwh1qoLY5qk-6" value="&lt;font style=&quot;vertical-align: inherit;&quot;&gt;&lt;font style=&quot;vertical-align: inherit;&quot;&gt;INGRESE NOMBRE DE LA CIUDAD&lt;/font&gt;&lt;/font&gt;" style="shape=parallelogram;perimeter=parallelogramPerimeter;whiteSpace=wrap;html=1;fixedSize=1;" vertex="1" parent="1">
          <mxGeometry x="-125" y="190" width="250" height="60" as="geometry" />
        </mxCell>
        <mxCell id="gP56f93Z0Lwh1qoLY5qk-7" value="" style="rounded=0;whiteSpace=wrap;html=1;" vertex="1" parent="1">
          <mxGeometry x="-61" y="310" width="120" height="60" as="geometry" />
        </mxCell>
        <mxCell id="gP56f93Z0Lwh1qoLY5qk-8" value="" style="endArrow=classic;html=1;rounded=0;exitX=0.5;exitY=1;exitDx=0;exitDy=0;" edge="1" parent="1" source="gP56f93Z0Lwh1qoLY5qk-6">
          <mxGeometry width="50" height="50" relative="1" as="geometry">
            <mxPoint x="1" y="260" as="sourcePoint" />
            <mxPoint x="1" y="310" as="targetPoint" />
          </mxGeometry>
        </mxCell>
        <mxCell id="gP56f93Z0Lwh1qoLY5qk-10" value="" style="endArrow=classic;html=1;rounded=0;" edge="1" parent="1">
          <mxGeometry width="50" height="50" relative="1" as="geometry">
            <mxPoint x="-62" y="339" as="sourcePoint" />
            <mxPoint x="-142" y="339" as="targetPoint" />
          </mxGeometry>
        </mxCell>
        <mxCell id="gP56f93Z0Lwh1qoLY5qk-11" value="&lt;font style=&quot;vertical-align: inherit;&quot;&gt;&lt;font style=&quot;vertical-align: inherit;&quot;&gt;La Ciudad fue encontrada con exito&lt;/font&gt;&lt;/font&gt;" style="shape=parallelogram;perimeter=parallelogramPerimeter;whiteSpace=wrap;html=1;fixedSize=1;" vertex="1" parent="1">
          <mxGeometry x="-330" y="311" width="190" height="70" as="geometry" />
        </mxCell>
        <mxCell id="gP56f93Z0Lwh1qoLY5qk-12" value="&lt;font style=&quot;vertical-align: inherit;&quot;&gt;&lt;font style=&quot;vertical-align: inherit;&quot;&gt;&lt;font style=&quot;vertical-align: inherit;&quot;&gt;&lt;font style=&quot;vertical-align: inherit;&quot;&gt;La Ciudad NO fue encontrada coloque una Ciudad valida&lt;/font&gt;&lt;/font&gt;&lt;/font&gt;&lt;/font&gt;" style="shape=parallelogram;perimeter=parallelogramPerimeter;whiteSpace=wrap;html=1;fixedSize=1;" vertex="1" parent="1">
          <mxGeometry x="169" y="305" width="170" height="70" as="geometry" />
        </mxCell>
        <mxCell id="gP56f93Z0Lwh1qoLY5qk-13" value="" style="endArrow=classic;html=1;rounded=0;" edge="1" parent="1" target="gP56f93Z0Lwh1qoLY5qk-12">
          <mxGeometry width="50" height="50" relative="1" as="geometry">
            <mxPoint x="60" y="337" as="sourcePoint" />
            <mxPoint x="142" y="337" as="targetPoint" />
          </mxGeometry>
        </mxCell>
        <mxCell id="gP56f93Z0Lwh1qoLY5qk-14" value="&lt;font style=&quot;vertical-align: inherit;&quot;&gt;&lt;font style=&quot;vertical-align: inherit;&quot;&gt;Mostrar informacion sobre la ciudad&lt;/font&gt;&lt;/font&gt;" style="shape=parallelogram;perimeter=parallelogramPerimeter;whiteSpace=wrap;html=1;fixedSize=1;" vertex="1" parent="1">
          <mxGeometry x="-335" y="431" width="191" height="99" as="geometry" />
        </mxCell>
        <mxCell id="gP56f93Z0Lwh1qoLY5qk-15" value="&lt;font style=&quot;vertical-align: inherit;&quot;&gt;&lt;font style=&quot;vertical-align: inherit;&quot;&gt;FN&lt;/font&gt;&lt;/font&gt;" style="ellipse;whiteSpace=wrap;html=1;" vertex="1" parent="1">
          <mxGeometry x="-295" y="580" width="120" height="80" as="geometry" />
        </mxCell>
        <mxCell id="gP56f93Z0Lwh1qoLY5qk-17" value="" style="endArrow=none;html=1;rounded=0;" edge="1" parent="1">
          <mxGeometry width="50" height="50" relative="1" as="geometry">
            <mxPoint x="238" y="426" as="sourcePoint" />
            <mxPoint x="238" y="376" as="targetPoint" />
          </mxGeometry>
        </mxCell>
        <mxCell id="gP56f93Z0Lwh1qoLY5qk-18" value="" style="endArrow=none;html=1;rounded=0;" edge="1" parent="1">
          <mxGeometry width="50" height="50" relative="1" as="geometry">
            <mxPoint x="40" y="430" as="sourcePoint" />
            <mxPoint x="238" y="426" as="targetPoint" />
          </mxGeometry>
        </mxCell>
        <mxCell id="gP56f93Z0Lwh1qoLY5qk-19" value="" style="endArrow=classic;html=1;rounded=0;entryX=0.823;entryY=1.011;entryDx=0;entryDy=0;entryPerimeter=0;" edge="1" parent="1" target="gP56f93Z0Lwh1qoLY5qk-7">
          <mxGeometry width="50" height="50" relative="1" as="geometry">
            <mxPoint x="40" y="430" as="sourcePoint" />
            <mxPoint x="42.19999999999982" y="373.3599999999999" as="targetPoint" />
          </mxGeometry>
        </mxCell>
        <mxCell id="gP56f93Z0Lwh1qoLY5qk-21" value="" style="endArrow=classic;html=1;rounded=0;exitX=0.5;exitY=1;exitDx=0;exitDy=0;" edge="1" parent="1">
          <mxGeometry width="50" height="50" relative="1" as="geometry">
            <mxPoint x="-240" y="381" as="sourcePoint" />
            <mxPoint x="-239" y="430" as="targetPoint" />
          </mxGeometry>
        </mxCell>
        <mxCell id="gP56f93Z0Lwh1qoLY5qk-23" value="" style="endArrow=classic;html=1;rounded=0;exitX=0.5;exitY=1;exitDx=0;exitDy=0;" edge="1" parent="1">
          <mxGeometry width="50" height="50" relative="1" as="geometry">
            <mxPoint x="-235.5" y="530" as="sourcePoint" />
            <mxPoint x="-234.5" y="579" as="targetPoint" />
          </mxGeometry>
        </mxCell>
      </root>
    </mxGraphModel>
  </diagram>
</mxfile>
